<svg xmlns="http://www.w3.org/2000/svg" width="300" height="450" viewBox="0 0 300 450"><rect width="100%" height="100%" fill="#DDDDDD"/><path fill="#999999" d="M75.475 214.155h3.56v21.69h-2.08q-.47 0-.8-.16-.32-.16-.62-.53l-11.33-14.46q.1.99.1 1.83v13.32h-3.56v-21.69h2.12q.25 0 .44.02.18.03.33.09.14.07.28.2.13.13.29.34l11.38 14.52q-.05-.53-.08-1.04t-.03-.94v-13.19Zm29.07 10.85q0 2.38-.79 4.41-.79 2.04-2.23 3.52t-3.46 2.32q-2.03.83-4.5.83-2.46 0-4.49-.83-2.02-.84-3.47-2.32-1.44-1.48-2.24-3.52-.8-2.03-.8-4.41 0-2.39.8-4.42t2.24-3.52q1.45-1.49 3.47-2.32 2.03-.83 4.49-.83 1.65 0 3.1.38 1.46.39 2.67 1.08 1.22.7 2.19 1.7.96 1 1.64 2.23.67 1.23 1.03 2.66.35 1.45.35 3.04Zm-4.13 0q0-1.79-.47-3.21-.49-1.41-1.37-2.4-.88-1-2.15-1.52-1.27-.53-2.86-.53-1.59 0-2.86.53-1.27.52-2.16 1.52-.89.99-1.37 2.4-.48 1.42-.48 3.21 0 1.78.48 3.2.48 1.42 1.37 2.4.89.98 2.16 1.51 1.27.52 2.86.52 1.59 0 2.86-.52 1.27-.53 2.15-1.51.88-.98 1.37-2.4.47-1.42.47-3.2Zm22.83-10.85v3.31h-6.54v18.38h-4.03v-18.38h-6.54v-3.31h17.11Zm23.82 3.21h-9.63v6.42h8.13v3.23h-8.13v8.83h-4.05v-21.69h13.68v3.21Zm23.99 7.64q0 2.38-.79 4.41-.79 2.04-2.23 3.52t-3.46 2.32q-2.03.83-4.5.83-2.46 0-4.49-.83-2.02-.84-3.47-2.32-1.45-1.48-2.24-3.52-.8-2.03-.8-4.41 0-2.39.8-4.42.79-2.03 2.24-3.52 1.45-1.49 3.47-2.32 2.03-.83 4.49-.83 1.65 0 3.1.38 1.46.39 2.67 1.08 1.22.7 2.19 1.7.96 1 1.64 2.23.67 1.23 1.03 2.66.35 1.45.35 3.04Zm-4.13 0q0-1.79-.48-3.21-.48-1.41-1.36-2.4-.89-1-2.15-1.52-1.27-.53-2.86-.53-1.59 0-2.86.53-1.27.52-2.16 1.52-.89.99-1.37 2.4-.48 1.42-.48 3.21 0 1.78.48 3.2.48 1.42 1.37 2.4.89.98 2.16 1.51 1.27.52 2.86.52 1.59 0 2.86-.52 1.26-.53 2.15-1.51.88-.98 1.36-2.4.48-1.42.48-3.2Zm16.41 7.59q1.17 0 2.1-.4.92-.39 1.55-1.09.63-.7.97-1.71.33-1.01.33-2.25v-12.99h4.04v12.99q0 1.94-.62 3.58-.63 1.64-1.79 2.83-1.16 1.2-2.83 1.86-1.66.67-3.75.67-2.1 0-3.76-.67-1.67-.66-2.83-1.86-1.16-1.19-1.78-2.83-.63-1.64-.63-3.58v-12.99h4.04v12.98q0 1.24.34 2.25.33 1 .97 1.71.64.71 1.56 1.1.92.4 2.09.4Zm28.28-18.44h3.55v21.69h-2.07q-.48 0-.8-.16-.32-.16-.62-.53l-11.33-14.46q.09.99.09 1.83v13.32h-3.55v-21.69h2.11q.26 0 .45.02.18.03.33.09.14.07.27.2.14.13.3.34l11.37 14.52q-.04-.53-.07-1.04-.03-.51-.03-.94v-13.19Zm27.64 10.85q0 2.38-.79 4.38-.8 1.99-2.24 3.43-1.44 1.44-3.46 2.24-2.03.79-4.5.79h-8.27v-21.69h8.27q2.47 0 4.5.8 2.02.8 3.46 2.24 1.44 1.43 2.24 3.43.79 1.99.79 4.38Zm-4.14 0q0-1.79-.47-3.21-.47-1.41-1.36-2.4-.9-.98-2.16-1.5-1.27-.53-2.86-.53h-4.22v15.27h4.22q1.59 0 2.86-.52 1.26-.53 2.16-1.51.89-.98 1.36-2.4.47-1.42.47-3.2Z"/></svg>