<?xml version="1.0" encoding="UTF-8"?>
<!DOCTYPE svg PUBLIC "-//W3C//DTD SVG 1.1//EN" "http://www.w3.org/Graphics/SVG/1.1/DTD/svg11.dtd">
<svg xmlns="http://www.w3.org/2000/svg" version="1.1" width="2395px" height="1270px" style="shape-rendering:geometricPrecision; text-rendering:geometricPrecision; image-rendering:optimizeQuality; fill-rule:evenodd; clip-rule:evenodd" xmlns:xlink="http://www.w3.org/1999/xlink">
<g><path style="opacity:0.981" fill="#9ac400" d="M 1730.5,335.5 C 1745.5,335.333 1760.5,335.5 1775.5,336C 1776,336.5 1776.5,337 1777,337.5C 1778.14,345.234 1778.64,353.068 1778.5,361C 1784.67,384.167 1776.17,392.667 1753,386.5C 1745.83,386.333 1738.67,386.167 1731.5,386C 1730.58,385.626 1729.75,385.126 1729,384.5C 1727.37,369.593 1727.03,354.593 1728,339.5C 1728.66,338.016 1729.5,336.683 1730.5,335.5 Z"/></g>
<g><path style="opacity:0.977" fill="#9ac400" d="M 1786.5,385.5 C 1805.5,385.333 1824.5,385.5 1843.5,386C 1846.74,386.232 1849.24,387.732 1851,390.5C 1851.67,412.5 1851.67,434.5 1851,456.5C 1849.89,458.815 1848.06,460.315 1845.5,461C 1825.5,461.667 1805.5,461.667 1785.5,461C 1781.69,459.86 1779.19,457.36 1778,453.5C 1777.33,433.833 1777.33,414.167 1778,394.5C 1779.02,389.654 1781.85,386.654 1786.5,385.5 Z"/></g>
<g><path style="opacity:0.988" fill="#9ac400" d="M 1688.5,460.5 C 1714.84,460.333 1741.17,460.5 1767.5,461C 1772.57,462.406 1776.07,465.572 1778,470.5C 1778.67,497.833 1778.67,525.167 1778,552.5C 1775.96,557.876 1772.13,561.043 1766.5,562C 1753.84,562.5 1741.17,562.667 1728.5,562.5C 1728.67,611.834 1728.5,661.168 1728,710.5C 1724.82,770.395 1694.65,809.229 1637.5,827C 1603.28,835.513 1568.62,837.846 1533.5,834C 1500.99,831.233 1471.99,819.9 1446.5,800C 1422.79,777.73 1409.95,750.23 1408,717.5C 1407.33,648.167 1407.33,578.833 1408,509.5C 1409.08,497.762 1415.24,490.262 1426.5,487C 1447.16,483.685 1467.83,483.685 1488.5,487C 1501.31,491.513 1507.48,500.68 1507,514.5C 1507.33,580.5 1507.67,646.5 1508,712.5C 1509.72,727.554 1517.55,738.054 1531.5,744C 1553.64,750.54 1575.97,751.207 1598.5,746C 1614.21,741.62 1623.71,731.453 1627,715.5C 1628.31,646.864 1628.98,578.197 1629,509.5C 1630.08,497.762 1636.24,490.262 1647.5,487C 1657.4,485.016 1667.4,484.182 1677.5,484.5C 1676.7,476.983 1678.37,470.149 1682.5,464C 1684.43,462.541 1686.43,461.375 1688.5,460.5 Z M 1678.5,485.5 C 1688.6,485.182 1698.6,486.016 1708.5,488C 1721.17,492.143 1727.34,500.977 1727,514.5C 1727.5,530.163 1727.67,545.83 1727.5,561.5C 1715.16,561.667 1702.83,561.5 1690.5,561C 1683.88,559.384 1680.05,555.218 1679,548.5C 1678.5,527.503 1678.33,506.503 1678.5,485.5 Z"/></g>
<g><path style="opacity:0.985" fill="#9ac400" d="M 701.5,484.5 C 739.189,484.072 776.855,484.572 814.5,486C 840.975,487.7 863.475,497.867 882,516.5C 893.347,530.533 900.347,546.533 903,564.5C 908.07,594.451 905.736,623.784 896,652.5C 884.601,677.227 865.767,693.393 839.5,701C 830.958,703.308 822.291,704.975 813.5,706C 775.518,707.407 737.518,707.907 699.5,707.5C 699.969,745.54 699.469,783.54 698,821.5C 696.5,825.667 693.667,828.5 689.5,830C 679.833,832 670.167,832 660.5,830C 655.938,828.373 653.105,825.206 652,820.5C 651.333,723.5 651.333,626.5 652,529.5C 656.319,501.012 672.819,486.012 701.5,484.5 Z M 712.5,530.5 C 743.168,530.333 773.835,530.5 804.5,531C 820.474,531.425 833.974,537.258 845,548.5C 854.151,563.101 858.318,579.101 857.5,596.5C 857.422,608.785 855.588,620.785 852,632.5C 846.506,645.992 836.673,654.492 822.5,658C 812.351,660.697 802.017,662.031 791.5,662C 760.835,662.5 730.168,662.667 699.5,662.5C 699.333,622.832 699.5,583.165 700,543.5C 701.691,536.644 705.858,532.311 712.5,530.5 Z"/></g>
<g><path style="opacity:0.983" fill="#9ac400" d="M 988.5,560.5 C 1014.66,559.14 1040.33,561.973 1065.5,569C 1094.96,579.131 1112.12,599.631 1117,630.5C 1117.67,675.833 1117.67,721.167 1117,766.5C 1112.42,798.742 1094.59,819.575 1063.5,829C 1028.54,837.904 993.542,838.238 958.5,830C 929.789,821.957 911.956,803.457 905,774.5C 895.516,719.586 918.016,687.086 972.5,677C 983.767,675.263 995.1,674.263 1006.5,674C 1028.16,673.5 1049.83,673.333 1071.5,673.5C 1071.67,663.161 1071.5,652.828 1071,642.5C 1070.35,626.693 1062.85,615.526 1048.5,609C 1034.73,604.383 1020.56,602.216 1006,602.5C 984.619,602.968 963.453,605.302 942.5,609.5C 934.411,609.579 929.911,605.579 929,597.5C 924.078,577.825 931.578,566.992 951.5,565C 963.926,563.01 976.26,561.51 988.5,560.5 Z M 997.5,712.5 C 1022.17,712.5 1046.83,712.5 1071.5,712.5C 1071.87,728.869 1071.37,745.202 1070,761.5C 1067.4,776.767 1058.57,786.267 1043.5,790C 1019.36,796.29 995.363,795.956 971.5,789C 957.118,781.929 949.785,770.262 949.5,754C 949.763,734.079 959.43,721.412 978.5,716C 984.938,714.61 991.272,713.443 997.5,712.5 Z"/></g>
<g><path style="opacity:0.984" fill="#9ac400" d="M 1142.5,568.5 C 1149.84,568.334 1157.17,568.5 1164.5,569C 1174.92,571.766 1180.76,578.599 1182,589.5C 1198.87,652.632 1216.2,715.632 1234,778.5C 1238.13,789.571 1246.13,794.904 1258,794.5C 1270.55,794.617 1278.55,788.617 1282,776.5C 1296.65,717.245 1310.98,657.912 1325,598.5C 1326.41,590.861 1328.74,583.528 1332,576.5C 1338.36,569.779 1346.19,567.112 1355.5,568.5C 1373.71,566.244 1380.21,573.91 1375,591.5C 1354.67,672.833 1334.33,754.167 1314,835.5C 1308.21,860.067 1297.88,882.4 1283,902.5C 1259.56,927.536 1230.73,937.703 1196.5,933C 1190.66,927.512 1187.49,920.679 1187,912.5C 1186.33,908.5 1186.33,904.5 1187,900.5C 1188.12,898.376 1189.62,896.543 1191.5,895C 1200.44,893.09 1209.44,891.423 1218.5,890C 1233.69,886.474 1245.19,877.974 1253,864.5C 1258.34,855.157 1262.5,845.323 1265.5,835C 1265.17,834.5 1264.83,834 1264.5,833.5C 1250.38,836.495 1236.38,835.995 1222.5,832C 1209.27,825.775 1199.77,815.941 1194,802.5C 1190.05,792.716 1186.72,782.716 1184,772.5C 1166.6,708.725 1149.43,644.891 1132.5,581C 1132.89,574.354 1136.22,570.188 1142.5,568.5 Z"/></g>
</svg>
